<?xml version="1.0" standalone="no"?>
<!DOCTYPE svg PUBLIC "-//W3C//DTD SVG 20010904//EN"
 "http://www.w3.org/TR/2001/REC-SVG-20010904/DTD/svg10.dtd">
<svg version="1.0" xmlns="http://www.w3.org/2000/svg"
 width="96.000000pt" height="96.000000pt" viewBox="0 0 96.000000 96.000000"
 preserveAspectRatio="xMidYMid meet">
<metadata>
Created by potrace 1.11, written by Peter Selinger 2001-2013
</metadata>
<g transform="translate(0.000000,96.000000) scale(0.100000,-0.100000)"
fill="#000000" stroke="none">
<path d="M391 796 c-39 -14 -51 -33 -27 -42 13 -5 16 -22 16 -81 0 -68 -2 -74
-17 -68 -108 43 -210 -27 -218 -148 -9 -134 108 -221 213 -157 26 16 32 17 32
5 0 -11 11 -15 40 -15 42 0 53 17 26 39 -11 9 -14 56 -14 237 0 124 -4 229 -8
234 -5 4 -24 2 -43 -4z m-23 -239 c24 -24 19 -184 -7 -210 -19 -19 -61 -25
-99 -13 -73 23 -72 201 1 233 30 14 86 8 105 -10z"/>
<path d="M492 600 c-27 -26 -28 -40 -3 -40 28 0 30 -16 30 -185 0 -116 -4
-155 -15 -173 -24 -36 -12 -48 42 -46 27 1 52 2 57 3 12 2 8 23 -8 35 -12 9
-16 33 -16 111 -1 211 -2 204 30 236 33 33 82 39 118 14 44 -31 55 -135 19
-189 -29 -44 -46 -48 -140 -33 -23 4 -15 -30 9 -41 66 -30 156 1 194 68 22 40
28 119 12 163 -15 39 -69 86 -107 93 -40 7 -113 -12 -121 -33 -7 -19 -17 -16
-28 10 -13 29 -45 33 -73 7z"/>
</g>
</svg>
